<svg width="35" height="35" viewBox="0 0 90 93" fill="none" xmlns="http://www.w3.org/2000/svg">
<rect y="1" width="90" height="90" fill="#F9C784"/>
<path d="M17.875 67.5625C17.6667 67.1042 17.4583 66.6667 17.25 66.25C17.0417 65.8333 16.8333 65.4583 16.625 65.125C16.125 64.125 15.6875 63.2292 15.3125 62.4375C14.9375 61.6458 14.5833 60.7292 14.25 59.6875C14.375 58.9792 14.5833 57.7917 14.875 56.125C15.2083 54.4583 15.5833 52.6458 16 50.6875C16.4167 48.6875 16.8542 46.6667 17.3125 44.625C17.8125 42.5833 18.3125 40.8333 18.8125 39.375C19.2708 38.0833 19.7708 36.7083 20.3125 35.25C20.8958 33.7917 21.5208 32.4583 22.1875 31.25C22.8958 30 23.6458 28.9375 24.4375 28.0625C25.2292 27.1875 26.0833 26.6667 27 26.5C27.25 26.8333 27.5208 27.1042 27.8125 27.3125C28.1042 27.4792 28.375 27.6042 28.625 27.6875C29.3333 28.6875 30.0208 29.5417 30.6875 30.25C31.3542 30.9167 32.1458 31.5833 33.0625 32.25C32.8125 33.5 32.4375 34.8958 31.9375 36.4375C31.4792 37.9375 30.9792 39.4583 30.4375 41C29.9375 42.5417 29.4375 44.0417 28.9375 45.5C28.4375 46.9167 28.0417 48.1458 27.75 49.1875C27.5 50.0208 27.25 50.9792 27 52.0625C26.7917 52.9792 26.5625 54.0833 26.3125 55.375C26.1042 56.6667 25.8958 58.0833 25.6875 59.625C26.2708 59.4583 26.9167 59.125 27.625 58.625C28.375 58.125 29.0625 57.6042 29.6875 57.0625C30.4375 56.4375 31.1667 55.7708 31.875 55.0625C32.8333 54.1042 33.6458 53.2292 34.3125 52.4375C34.9792 51.6458 35.5833 50.8333 36.125 50C36.7083 49.125 37.2917 48.1875 37.875 47.1875C38.5 46.1458 39.2292 44.9167 40.0625 43.5C40.8125 42.2917 41.5833 41 42.375 39.625C43.2083 38.25 44.0417 36.9375 44.875 35.6875C45.7083 34.4375 46.5208 33.2917 47.3125 32.25C48.1042 31.1667 48.8333 30.3333 49.5 29.75C49.9583 30.2083 50.4792 30.6875 51.0625 31.1875C51.6875 31.6875 52.3542 32.0417 53.0625 32.25C53.3542 32.7083 53.625 33.125 53.875 33.5C54.1667 33.8333 54.4375 34.1667 54.6875 34.5C55.0208 34.9583 55.3125 35.375 55.5625 35.75C55.8542 36.125 56.1042 36.5417 56.3125 37C56.2708 37.3333 56.1875 37.7708 56.0625 38.3125C55.9792 38.8542 55.875 39.4583 55.75 40.125C55.625 40.75 55.4792 41.3958 55.3125 42.0625C55.1875 42.7292 55.0625 43.375 54.9375 44C54.5208 45.875 54.2083 47.2917 54 48.25C53.7917 49.2083 53.6458 49.9583 53.5625 50.5C53.4792 51.0417 53.4167 51.5 53.375 51.875C53.375 52.25 53.375 52.7708 53.375 53.4375C53.375 53.9375 53.4167 54.4375 53.5 54.9375C53.5833 55.3958 53.6667 55.875 53.75 56.375C53.875 56.8333 54.0833 57.2708 54.375 57.6875L57.375 55.375C58.2083 54.75 59 53.875 59.75 52.75C60.5417 51.5833 61.2917 50.2708 62 48.8125C62.75 47.3125 63.4792 45.7083 64.1875 44C64.8958 42.25 65.6042 40.4583 66.3125 38.625C66.8125 37.2917 67.3125 35.9792 67.8125 34.6875C68.3542 33.3542 68.8958 32.1042 69.4375 30.9375C69.9792 29.7292 70.5 28.6458 71 27.6875C71.5417 26.6875 72.0625 25.8542 72.5625 25.1875C73.6875 25.8958 74.6458 26.6042 75.4375 27.3125C76.2708 28.0208 76.9792 28.8125 77.5625 29.6875C78.1875 30.5208 78.6667 31.5 79 32.625C79.375 33.7083 79.6458 35 79.8125 36.5C78.8958 38.25 78.0417 40.0417 77.25 41.875C76.4583 43.7083 75.6667 45.5625 74.875 47.4375C73.875 49.8542 72.8333 52.2708 71.75 54.6875C70.7083 57.0625 69.5417 59.3333 68.25 61.5C66.9583 63.6667 65.5 65.6667 63.875 67.5C62.2917 69.2917 60.4583 70.8125 58.375 72.0625C57.7917 71.9375 57.2917 71.875 56.875 71.875C56.4167 71.875 56.0208 71.9375 55.6875 72.0625C55.3958 72.1875 55.125 72.3542 54.875 72.5625C53.1667 71.7708 51.7917 70.6042 50.75 69.0625C49.7083 67.4792 48.6875 65.7292 47.6875 63.8125C47.5625 63.5208 47.4167 63.25 47.25 63C47.125 62.7083 46.9792 62.4167 46.8125 62.125L45.75 60.1875L45.125 59L44.25 59.8125L42.9375 61L42.1875 61.75C40.8958 62.9583 39.5833 64.1458 38.25 65.3125C36.9167 66.4375 35.5208 67.4792 34.0625 68.4375C32.6042 69.3542 31.0417 70.1042 29.375 70.6875C27.75 71.2708 26 71.5833 24.125 71.625C23.7917 71.4583 23.4792 71.3125 23.1875 71.1875C22.9375 71.0625 22.6875 70.9375 22.4375 70.8125C21.4792 70.3542 20.6875 69.9167 20.0625 69.5C19.4375 69.0833 18.7083 68.4375 17.875 67.5625Z" fill="#112233"/>
</svg>
